<?xml version="1.0" encoding="utf-8"?>
<!-- Generator: Adobe Illustrator 24.0.2, SVG Export Plug-In . SVG Version: 6.00 Build 0)  -->
<svg version="1.1" id="Layer_1" xmlns="http://www.w3.org/2000/svg" xmlns:xlink="http://www.w3.org/1999/xlink" x="0px" y="0px"
	 viewBox="0 0 598 595.3" style="enable-background:new 0 0 598 595.3;" xml:space="preserve">
<style type="text/css">
	.st0{fill-rule:evenodd;clip-rule:evenodd;fill:url(#SVGID_1_);}
	.st1{fill-rule:evenodd;clip-rule:evenodd;fill:#FFFFFF;}
</style>
<radialGradient id="SVGID_1_" cx="269.9662" cy="127.5743" r="486.9839" gradientUnits="userSpaceOnUse">
	<stop  offset="0" style="stop-color:#00AEEF"/>
	<stop  offset="1" style="stop-color:#00164E"/>
</radialGradient>
<circle class="st0" cx="299.3" cy="297.9" r="293.6"/>
<path class="st1" d="M7.1,326.1c-0.9-9.3-1.4-18.8-1.4-28.3c0-51.8,13.4-100.5,37-142.7c30.4-50.2,78.3-92.6,141.5-113.3
	c25.8-8.5,53.1-12.6,84.2-13.1c0.9,0.1,1.7,0.2,2.5,0.3c165.3,4.8,292.4,151.6,258,370.7c-11.9,10.8-24.2,21.5-36.6,31.7l27.4,26.9
	c0.9,0.8,1.1,2.4,0.3,3.3l-4.4,5.1c1.3,1.3,1.3,5.2-0.5,6.1c0,1.3-0.3,3-1.1,4.4l-8.6,11.1c-1.9,2.6-5,3.5-7.9,4.9
	c0.3,3.6-2.2,4.5-5.3,3.9l-4.4,5.5c-1.5,0.3-3.3-0.8-3.7-2.2l-2.1-8.4c-2.1-1.6-5.4-3.6-5.9-5.7c-0.1-2.4,0.7-5,1.6-7.8
	c-13.4-1.8-25.9-4.2-38.5-6.6c-62.8,44.5-125,76-166.7,78.8c0.1,0,0.2,0,0.2,0.1c-0.6,0-1.3,0-1.9,0c-1,0-2,0.1-2.9,0.1l0,0
	c-68.6,0.5-128.2-25.4-169.5-60.3C47.8,447.3,16.2,388.2,7.1,326.1L7.1,326.1z M165.1,323.3c-5.9,1.6-10.8,2.7-14.7,3.3
	c-3.9,0.6-7.4,0.9-10.6,0.9c-5.9,0-10.7-1.1-14.5-3.3c-3.8-2.2-6.6-5.3-8.4-9.2c-1.9-4-2.4-8.8-1.7-14.3c0.8-6.1,2.9-11.7,6.3-16.7
	c3.4-5,7.8-8.9,13-11.5c5.2-2.6,11-3.9,17.1-3.9c2.8,0,5.8,0.2,9.1,0.7c3.2,0.5,7.4,1.4,12.6,2.8l0.6-8.4c0.2-3.2,0.5-6.2,0.7-8.9
	l0.6-6.2c-9.7-1.9-17.9-2.8-24.6-2.8c-7.3,0-14.5,1-21.7,3.1c-7.1,2-13.9,5.4-20.2,10.1c-6.3,4.7-11.5,10.6-15.4,17.7
	c-4,7.1-6.5,15-7.6,23.9c-0.9,7.6-0.7,14.4,0.9,20.5c1.5,6.1,4.6,11.4,9.3,15.9c4.7,4.5,10.2,7.8,16.2,9.7c6.1,2,12.8,3,20.2,3
	c7.6,0,16.4-0.8,26.3-2.3c0.6-2.8,1.6-6.8,3.1-12C163.1,330.2,164.2,326.2,165.1,323.3L165.1,323.3z M169.8,347.8l13.2-0.1l17.9,0.1
	c7,0,13.6-0.1,19.9-0.3c6.3-0.2,10.6-0.5,13-0.9c3-0.5,5.9-1.5,8.9-2.9c3-1.4,5.4-3.1,7.4-5.1c2.3-2.4,4.3-5.2,5.8-8.4
	c1.6-3.3,2.5-6.8,3-10.5c0.3-2.7,0.3-5.3,0-7.7c-0.4-2.4-1.1-4.6-2.2-6.6c-1.1-2-2.4-3.5-3.9-4.8c-1.5-1.2-2.9-2.1-4.3-2.7
	c-1.4-0.6-3.3-1.1-5.6-1.5c2.5-0.7,4.5-1.5,6-2.2c1.5-0.7,3.1-1.8,4.8-3.1c1.7-1.3,3.2-3,4.7-5c1.5-2,2.7-4.2,3.7-6.8
	c1-2.5,1.6-5.2,2-8c0.4-3.6,0.3-6.9-0.4-10c-0.7-2.8-1.7-5.1-3.3-7c-1.4-1.7-3.2-3.1-5.4-4.2c-2.3-1.1-4.9-1.9-8.1-2.4
	c-2.4-0.3-6.4-0.5-12.1-0.5c-4.7,0-10.4,0.1-17,0.3c-6.6,0.2-12.4,0.3-17.4,0.3c-3.5,0-8.3-0.1-14.4-0.2c-0.4,3.9-0.8,6.9-1.1,9.1
	c-0.8,6-2.3,16.4-4.5,31c-2.3,14.6-4.2,26.2-5.7,34.6C173.8,328.5,172.1,337,169.8,347.8L169.8,347.8z M207.9,286.7h9.7
	c3.2,0,5.5-0.1,6.8-0.2c1.4-0.2,2.7-0.5,4.1-0.9c1.3-0.4,2.5-1.2,3.6-2.2c1.1-1,1.9-2.2,2.4-3.4c0.6-1.3,0.9-2.6,1.1-3.8
	c0.2-1.8,0-3.4-0.6-4.8c-0.6-1.4-1.8-2.5-3.5-3.2c-1.7-0.7-4.3-1-8-1h-12.3L207.9,286.7L207.9,286.7z M201.2,327.7h13.1
	c3.5,0,6-0.2,7.7-0.7c2.1-0.5,3.7-1.2,4.9-2.1c1.1-0.9,2.1-2.1,2.9-3.6c0.8-1.5,1.3-3.2,1.6-5.1c0.2-1.6,0.1-3-0.2-4.3
	c-0.3-1.2-1-2.3-1.9-3.1c-0.9-0.8-2-1.4-3.5-1.8c-1.4-0.4-3.7-0.5-6.8-0.5h-14.4L201.2,327.7L201.2,327.7z M284.9,347.8
	c8.5-0.1,14.2-0.2,17.3-0.2c3.3,0,8.7,0,16.4,0.2c3.7-6.7,6.9-12.5,9.8-17.4l29.8-50.2c7.4-12.4,14-23.3,19.8-32.6
	c-7.4,0.1-12.4,0.2-14.9,0.2c-4,0-9.3,0-15.9-0.2c-1.5,3.1-2.6,5.4-3.3,6.7c-0.7,1.3-1.3,2.5-1.8,3.5l-30.8,56l-4.2,8.4
	c-0.7-5.8-1.3-10.6-1.9-14.1l-5.7-34.7c-1.3-7.7-2.2-13-2.7-15.9c-0.3-2.2-0.7-5.6-1.2-9.9c-6.3,0.1-11,0.2-13.9,0.2
	c-4.8,0-10.3,0-16.5-0.2l8.2,39.6l10.2,51.6L284.9,347.8L284.9,347.8z M362.2,347.8c11-0.1,23.9-0.2,38.5-0.2c10.7,0,22,0,33.8,0.2
	l2.9-13.1l1.7-9.1c-6.2,0.3-15.3,0.5-27.2,0.5c-2.4,0-7.5-0.1-15.3-0.2l1.6-10.2l7.2-41.5l5-26.6c-6.1,0.1-10.7,0.2-13.9,0.2
	c-4.8,0-10.2,0-16.4-0.2c-1,8.4-2.6,19.1-4.8,32.2c-2.1,13.1-4.5,26.3-7.1,39.6C366.8,326.8,364.8,336.2,362.2,347.8L362.2,347.8z
	 M264.7,529.4c27.7-39,98.2-75.4,159.7-128.3l-60.9,5l-0.1-2.4l46-3.8c0.3-0.2,0.7-0.5,0.9-0.6c0-0.1,0.5-0.4,0.6-0.5
	c0.5-0.2,0.6-0.8,1.9-0.6c0.8-0.1,2.6,0.5,4.2,1l9.8-0.8c14.7-38.5,20.9-78.8,27.2-107.2c3.2-23.3,9.8-52.9,38.6-56.1
	C486.8,124.9,392.3,41.5,281.1,33.3c29.5,9.2,57.5,32,56.1,39.8c-0.8,3.4-10.4-1.1-14.7-2.7c-3.4,0.7-6.8,1.6-10.2,2.5l-52.7,158.2
	l51-157.7c-42.5,12.2-83.3,40.7-120.5,76l7.9,81.7l-9.3-80.4C136,201.1,85.4,270.5,48.1,332.9c-1.6,2.6-3.1,5.1-4.6,7.6
	c10.3,6.5,80.2,51.6,105.8,68.1c-24.7-14.3-96.2-60.3-106.6-66.9l-0.6,0.9C50.5,468.2,160.4,545.2,268,546.6
	C264.3,541.6,263.8,535.9,264.7,529.4L264.7,529.4z M151.9,363.4l25.2,61.3c-0.7-0.4-3.1-1.5-12.8-6.9c8.3,5.7,17,11.6,17.8,15.2
	c0.6,2.5-6.6,13.2-8,14.2l-2.5-0.3c-2.5-0.3-9.7-0.4-10,3.2c-0.2,3.2,7.1,6.2,9.1,6.6c-0.1,1.2-0.2,4.2-2.5,4.3
	c-8.4,0.5,1.8,8,8.4,6.6c3.2-0.7,5.4-0.3,7.6,0.3c2.9,0.8,7.6,2.3,9.3-0.1c1.7-2.4,7.3,4.7,8.1,5.8c4.1,5.9,8.5,7.8,15.5,6.4
	c0.5-0.1,2.5-0.5,2.7-0.7c3.4,2.3,5.1,4.6,10.7,2.8c5.2-1.6,12.5-7.8,13.7-13.5c1.6-7.8-6.5-20-14.1-27.2c-2.6-2.5-6.3-6.2-7.1-6.1
	c0-0.4,0.3-1,0.8-1.6c0.7,0,1.1-0.2,1.7-0.9c0,0,0.1,0,0.1-0.1c0.4-0.3-0.4-0.8,0.4-1.4c0.2-0.2,0.6-0.5,0.7-0.7
	c0.1-0.1,0.2-0.2,0.4-0.3c0.2-0.1,0.4-0.2,0.5-0.4c0.2-0.2,0.4-0.3,0.5-0.3c0.5-2.3,1.7-0.8,2.4-4.8c0.2-0.3,0.3-0.7,0.3-1.1
	c0-0.9,0.4-1.1,0.4-1.3c0-0.3,0.3-1.5,0.3-1.5c-0.3-1.9,0.2-0.7,0.1-1.8c-0.5-1.5-0.1-2-0.3-2.9c-0.2-1.1-0.8-1.3-0.7-1.8
	c0.2-0.9,0.3-2.5-0.3-3.3c-1-1.2-0.3-0.9-0.5-2c-0.9-0.3,0.6-1.6-0.4-2c0,0-1.2-4.2-1.7-5.8c-0.1-0.4-0.1-0.6-0.1-0.6
	c0.2-2.5,1.8-4.6-1-8c-2-2.3-6.8-2.3-6.8,1.8c-1.6,1.7-2.5,3.2,2.1,5.7c0.5,0.3,0.6,1.6,1,3.2c-0.4,0.6-0.3,1.6,0,2.3
	c0,0.1,0.2,0.3,0.4,0.5c0.1,0.4,0.1,0.8,0.1,1.3c-0.5,0.5-0.9,1.6-0.2,2.5c-0.9,0.2-0.6,1.2-0.4,1.7c0.5,0.9,0.5-0.3,0.4,1.5
	c0,0.2,0,0.2,0.2,0.3c0.3,1.2-0.6,0.9-0.1,2.2c0,0.1-0.5,0.1-0.2,1.4l0,0.2c0,0.4-0.3,2-0.1,2.5l0.1,0c-0.1,0.3-0.3,0.4-0.5,0.5
	c-0.2,0.1-0.3,0.3-0.3,0.6c0,0-1.8,1.1-2.5,1.3c-0.3,0.1,0.5,0.3,0.2,0.5c-0.8,0.3-1.7,0.6-1.9,1.4c-2,0.4-0.2,0.6-3.2-0.1
	c-2.5-11.9-3.7-29.1-2.7-38l16.9-26.8L211.8,385l2-19.4l-3.5,19.4c0.6,7.9,0.7,36.1-0.3,39c-1.3,0-2,0.7-2.1,2
	c-0.2,1.7-1.3,1.4-4.7-0.1c-3.5-1.5-6.6-2.3-10.9-1.1c-4.2,1.4-7.2,6.4-7.9,5.4c-3.3-2.2-4.4-4.2-6.7-7.7L151.9,363.4L151.9,363.4z
	 M472.7,447.1l1.3,8.4c8.6,1.6,16.5,3.3,24.6,5.8c-0.3-0.7-0.6-1.6-0.8-2.5c7.9-0.3,12.6,2.2,13.8,6.9c0.8,0,1.5-0.2,2.4,0l4.1-5.1
	l-28-27.5C484.5,437.8,478.6,442.5,472.7,447.1L472.7,447.1z M463.7,454l8.1,1.1l-1-6.6C468.4,450.4,466.1,452.2,463.7,454
	L463.7,454z M486,493.5l1.4,6.5l3.2-4c-0.6-0.5-0.8-0.9-1.2-1.2L486,493.5L486,493.5z M509.7,471.8l-1.1,3l-1.5-0.1l-1.5,1.7
	c-1.9,0.5-3.3-1.1-4.4-2.5l-1.9,0.1c-4.9,4.3-9.9,4.8-15,8.3l-0.8,2.9c2.4,1.9,4,3.9,7.2,5.6c2.4,0.6,4.6-0.1,5.9,1
	c2.7-1.1,5.5-2.3,7-3.8l9.3-11.6c0.6-1.1,0.6-2.4,0.8-3.6C512.2,472.9,511,472.3,509.7,471.8z"/>
</svg>
